<svg width="22" height="20" viewBox="0 0 22 20" fill="none" xmlns="http://www.w3.org/2000/svg">
<path d="M2 19L18.5769 18.575C20.2033 18.5332 21.5 17.2028 21.5 15.5759V8C21.5 6.34315 20.1569 5 18.5 5H5.39477C3.77959 5 2.45433 6.27877 2.39668 7.89293L2 19ZM2 19C1.10421 18.7014 0.5 17.8631 0.5 16.9189V3.5C0.5 1.84315 1.84315 0.5 3.5 0.5H7.75736C8.55301 0.5 9.31607 0.81607 9.87868 1.37868L11.0374 2.53741C11.6491 3.14912 12.4951 3.46699 13.3583 3.40945L17.5044 3.13304C18.5844 3.06104 19.5 3.91763 19.5 5" stroke="white"/>
</svg>
