<svg width="66" height="45" viewBox="0 0 66 45" fill="none" xmlns="http://www.w3.org/2000/svg">
<circle cx="43.3971" cy="22.5" r="22.5" fill="#1C141C"/>
<path d="M47.3971 8L49.159 8.50339C50.3108 8.83247 51.4045 9.33826 52.4012 10.0027C53.3926 10.6636 54.276 11.4735 55.0203 12.4039L55.2481 12.6887C55.6796 13.2281 56.0529 13.8115 56.3618 14.4293C57.0427 15.791 57.3971 17.2926 57.3971 18.8151V19" stroke="white" stroke-linecap="round"/>
<path d="M48.5452 12.8657L50.109 13.8208C51.1312 14.4451 52.0505 15.2243 52.8338 16.1305C53.613 17.0318 54.2484 18.048 54.7176 19.1432L54.8612 19.4785C55.1332 20.1134 55.3374 20.7752 55.4703 21.453C55.7634 22.9471 55.7045 24.4888 55.2984 25.9562L55.2491 26.1343" stroke="white" stroke-linecap="round"/>
<circle cx="42.8971" cy="23" r="5" fill="#57CC99"/>
<circle cx="42.8971" cy="23" r="2" fill="#F4FFFA"/>
<path d="M25.6091 8H19.3971H15.2638C14.3556 8 13.4504 8.10309 12.5655 8.30731L9.86864 8.92966C8.24373 9.30463 6.72969 10.0562 5.4486 11.1238C4.75051 11.7055 4.1298 12.3743 3.60162 13.1137L3.31676 13.5125C2.37996 14.8241 1.71695 16.3109 1.36732 17.8842L1.1829 18.7141C0.99297 19.5688 0.897148 20.4417 0.897148 21.3173V22.3859C0.897148 23.7845 1.14165 25.1724 1.61963 26.4868L2.40426 28.6446C2.73167 29.5449 3.16574 30.4029 3.69718 31.2L4.25605 32.0384C5.33398 33.6552 6.78845 34.9862 8.49443 35.9167L10.4592 36.9884C11.0833 37.3288 11.7363 37.6131 12.4107 37.8379L17.3971 39.5L18.6229 39.9597C20.3716 40.6154 22.3259 40.4195 23.9097 39.4297L25.3971 38.5L28.9085 36.1591C29.566 35.7208 30.1786 35.2186 30.7374 34.6598L31.5202 33.877C32.4322 32.965 33.1912 31.9119 33.768 30.7583L34.8971 28.5L36.1747 24.9868C36.6526 23.6724 36.8971 22.2845 36.8971 20.8859V20.811C36.8971 19.2844 36.6058 17.7717 36.0389 16.3543L35.6583 15.4029C35.1545 14.1434 34.4408 12.9785 33.5475 11.9576L33.0323 11.3688C31.959 10.1421 30.5983 9.20044 29.0721 8.6281C27.9645 8.21275 26.792 8 25.6091 8Z" fill="#FEC5BB" stroke="#FEC5BB"/>
<path d="M14.7806 3.79054L15.9575 4.46305C16.5789 4.81815 17.134 5.28427 17.5922 5.8341C18.1012 6.44489 18.7208 6.94204 19.4092 7.30526L19.5012 7.0906C20.0735 5.75519 21.1665 4.71151 22.5268 4.20137C23.7327 3.74916 25.0616 3.74916 26.2675 4.20137L27.9457 4.8307C28.2462 4.94339 28.5371 5.08 28.8158 5.23922L31.8971 7L30.8222 7.64496C29.8897 8.20445 28.8227 8.5 27.7352 8.5H26.6358C26.1452 8.5 25.6565 8.43984 25.1806 8.32086L24.6137 8.17914C24.1378 8.06016 23.6491 8 23.1585 8H22.2074C21.2218 8 20.2626 7.75554 19.4092 7.30526L19.3523 7.43793C19.0516 8.13953 18.6198 8.77731 18.0801 9.31706L16.8971 10.5L16.0406 11.1852C14.9768 12.0363 13.6549 12.5 12.2925 12.5H12.2375C11.68 12.5 11.1252 12.4223 10.5892 12.2691L8.43333 11.6532C8.07664 11.5513 7.73018 11.4165 7.39838 11.2506L3.89715 9.5L0.897148 8L3.64299 5.64642C4.14236 5.21839 4.70872 4.87537 5.31939 4.6311L8.3243 3.42914C9.03302 3.14565 9.78933 3 10.5526 3H11.8038C12.8479 3 13.874 3.27249 14.7806 3.79054Z" fill="#57CC99"/>
<path d="M0.897148 8L3.64299 5.64642C4.14236 5.21839 4.70872 4.87537 5.31939 4.6311L8.3243 3.42914C9.03302 3.14565 9.78933 3 10.5526 3H11.8038C12.8479 3 13.874 3.27249 14.7806 3.79054L15.9575 4.46305C16.5789 4.81815 17.134 5.28427 17.5922 5.8341C18.7322 7.20206 20.4267 8 22.2074 8H23.1585C23.6491 8 24.1378 8.06016 24.6137 8.17914L25.1806 8.32085C25.6565 8.43984 26.1452 8.5 26.6358 8.5H27.7352C28.8227 8.5 29.8897 8.20445 30.8222 7.64496L31.8971 7L28.8158 5.23922C28.5371 5.08 28.2462 4.94339 27.9457 4.8307L26.2675 4.20137C25.0616 3.74916 23.7327 3.74916 22.5268 4.20137C21.1665 4.71151 20.0735 5.75519 19.5012 7.0906L19.3523 7.43793C19.0516 8.13953 18.6198 8.77731 18.0801 9.31706L16.8971 10.5L16.0406 11.1852C14.9768 12.0363 13.6549 12.5 12.2925 12.5H12.2375C11.68 12.5 11.1252 12.4223 10.5892 12.2691L8.43333 11.6532C8.07665 11.5513 7.73018 11.4165 7.39838 11.2506L3.89715 9.5L0.897148 8Z" stroke="#57CC99"/>
<path d="M19.8971 11L21.7552 12.9707C22.115 13.3522 22.4231 13.7793 22.6718 14.2409L24.3212 17.3022C24.5707 17.7654 24.7583 18.2594 24.879 18.7715L25.5496 21.6164C25.7777 22.5842 25.7617 23.5936 25.5031 24.5537L24.8782 26.8732C24.7579 27.3199 24.5863 27.7511 24.3669 28.1584L22.2971 32" stroke="#E0ADA4"/>
</svg>
